<svg xmlns="http://www.w3.org/2000/svg" xmlns:xlink="http://www.w3.org/1999/xlink" width="500" height="400" viewBox="0 0 500 400">
  <rect width="500" height="400" fill="#f4f4f5"/>

  <!-- Row 1 -->
  <image href="/patterns/ship1.png" x="10"  y="10"  width="90" height="60" opacity="0.12"/>
  <image href="/patterns/ship3.png" x="150" y="5"   width="80" height="55" opacity="0.12"/>
  <image href="/patterns/ship2.png" x="285" y="15"  width="85" height="58" opacity="0.12"/>
  <image href="/patterns/ship4.png" x="415" y="8"   width="75" height="55" opacity="0.12"/>

  <!-- Row 2 (offset) -->
  <image href="/patterns/ship2.png" x="-25" y="95"  width="85" height="58" opacity="0.12"/>
  <image href="/patterns/ship4.png" x="95"  y="88"  width="80" height="60" opacity="0.12"/>
  <image href="/patterns/ship1.png" x="225" y="95"  width="90" height="60" opacity="0.12"/>
  <image href="/patterns/ship3.png" x="360" y="85"  width="80" height="58" opacity="0.12"/>

  <!-- Row 3 -->
  <image href="/patterns/ship3.png" x="30"  y="175" width="80" height="58" opacity="0.12"/>
  <image href="/patterns/ship1.png" x="170" y="170" width="90" height="60" opacity="0.12"/>
  <image href="/patterns/ship4.png" x="305" y="177" width="75" height="55" opacity="0.12"/>
  <image href="/patterns/ship2.png" x="420" y="168" width="85" height="58" opacity="0.12"/>

  <!-- Row 4 (offset) -->
  <image href="/patterns/ship4.png" x="-10" y="260" width="75" height="55" opacity="0.12"/>
  <image href="/patterns/ship2.png" x="110" y="255" width="85" height="58" opacity="0.12"/>
  <image href="/patterns/ship3.png" x="248" y="262" width="80" height="55" opacity="0.12"/>
  <image href="/patterns/ship1.png" x="378" y="252" width="90" height="60" opacity="0.12"/>

  <!-- Row 5 (partial, for seamless tiling) -->
  <image href="/patterns/ship1.png" x="10"  y="342" width="90" height="60" opacity="0.12"/>
  <image href="/patterns/ship3.png" x="148" y="338" width="80" height="55" opacity="0.12"/>
  <image href="/patterns/ship2.png" x="285" y="344" width="85" height="58" opacity="0.12"/>
  <image href="/patterns/ship4.png" x="415" y="340" width="75" height="55" opacity="0.12"/>
</svg>
